<svg xmlns="http://www.w3.org/2000/svg" xmlns:xlink="http://www.w3.org/1999/xlink" width="130" height="109" viewBox="0 0 130 109">
  <defs>
    <linearGradient id="linear-gradient" x1="0.021" y1="0.05" x2="0.959" y2="0.92" gradientUnits="objectBoundingBox">
      <stop offset="0" stop-color="#0026ff"/>
      <stop offset="1" stop-color="#f0d"/>
    </linearGradient>
    <linearGradient id="linear-gradient-2" x1="0.022" y1="0.039" x2="0.927" y2="0.965" gradientUnits="objectBoundingBox">
      <stop offset="0" stop-color="#f0d"/>
      <stop offset="1" stop-color="#0026ff"/>
    </linearGradient>
    <linearGradient id="linear-gradient-3" x1="0.075" y1="0.047" x2="0.904" y2="0.957" xlink:href="#linear-gradient"/>
    <clipPath id="clip-devices">
      <rect width="130" height="109"/>
    </clipPath>
  </defs>
  <g id="devices" clip-path="url(#clip-devices)">
    <g id="Group_2" data-name="Group 2" transform="translate(-1.636 -1.845)">
      <g id="Group_1" data-name="Group 1" transform="translate(10 10.25)">
        <rect id="Rectangle_2" data-name="Rectangle 2" width="90.858" height="48.929" rx="2" fill="url(#linear-gradient)"/>
        <path id="Rectangle_2_-_Outline" data-name="Rectangle 2 - Outline" d="M2,1A1,1,0,0,0,1,2V46.929a1,1,0,0,0,1,1H88.858a1,1,0,0,0,1-1V2a1,1,0,0,0-1-1H2M2,0H88.858a2,2,0,0,1,2,2V46.929a2,2,0,0,1-2,2H2a2,2,0,0,1-2-2V2A2,2,0,0,1,2,0Z"/>
        <path id="Line_1" data-name="Line 1" d="M.5,18h-1V0h1Z" transform="translate(45.97 48.429)"/>
        <path id="Line_2" data-name="Line 2" d="M32,.5H0v-1H32Z" transform="translate(29.995 66.429)"/>
      </g>
      <rect id="Rectangle_3" data-name="Rectangle 3" width="58" height="39" rx="2" transform="translate(59.272 47.44)" fill="url(#linear-gradient-2)"/>
      <path id="Rectangle_3_-_Outline" data-name="Rectangle 3 - Outline" d="M2,1A1,1,0,0,0,1,2V37a1,1,0,0,0,1,1H56a1,1,0,0,0,1-1V2a1,1,0,0,0-1-1H2M2,0H56a2,2,0,0,1,2,2V37a2,2,0,0,1-2,2H2a2,2,0,0,1-2-2V2A2,2,0,0,1,2,0Z" transform="translate(59.272 47.44)"/>
      <rect id="Rectangle_1" data-name="Rectangle 1" width="21" height="40" rx="3" transform="translate(102.272 62.44)" fill="url(#linear-gradient-3)"/>
      <path id="Rectangle_1_-_Outline" data-name="Rectangle 1 - Outline" d="M3,.75A2.253,2.253,0,0,0,.75,3V37A2.253,2.253,0,0,0,3,39.25H18A2.253,2.253,0,0,0,20.25,37V3A2.253,2.253,0,0,0,18,.75H3M3,0H18a3,3,0,0,1,3,3V37a3,3,0,0,1-3,3H3a3,3,0,0,1-3-3V3A3,3,0,0,1,3,0Z" transform="translate(102.272 62.44)"/>
    </g>
  </g>
</svg>
